<?xml version="1.0" standalone="no"?>
<!DOCTYPE svg PUBLIC "-//W3C//DTD SVG 20010904//EN"
 "http://www.w3.org/TR/2001/REC-SVG-20010904/DTD/svg10.dtd">
<svg version="1.0" xmlns="http://www.w3.org/2000/svg"
 width="192.000000pt" height="192.000000pt" viewBox="0 0 192.000000 192.000000"
 preserveAspectRatio="xMidYMid meet">
<metadata>
Created by potrace 1.14, written by Peter Selinger 2001-2017
</metadata>
<g transform="translate(0.000000,192.000000) scale(0.100000,-0.100000)"
fill="#000000" stroke="none">
<path d="M990 1640 c0 -5 5 -12 10 -15 6 -3 10 -1 10 6 0 7 3 10 6 6 3 -3 3
-10 0 -16 -4 -6 -16 -4 -34 5 -15 7 -28 10 -30 4 -2 -5 -10 -6 -19 -3 -10 4
-14 2 -9 -5 3 -6 2 -14 -4 -17 -6 -4 -9 -1 -8 6 2 6 -3 14 -11 17 -8 3 -11 0
-7 -7 4 -6 2 -11 -4 -11 -6 0 -8 -5 -4 -12 4 -7 3 -8 -5 -4 -6 4 -9 11 -7 15
3 3 -4 7 -14 7 -15 0 -16 -3 -8 -14 9 -10 8 -12 -3 -10 -8 2 -17 7 -20 11 -3
4 -12 0 -20 -9 -12 -15 -12 -17 0 -9 10 5 12 4 7 -4 -4 -6 -13 -8 -19 -4 -22
14 -37 11 -47 -7 -10 -19 -24 -21 -50 -6 -12 7 -13 6 -2 -5 18 -20 15 -28 -13
-25 -14 2 -32 -5 -41 -15 -11 -12 -13 -19 -5 -19 7 0 9 -5 6 -11 -5 -6 -12 -4
-21 8 -13 17 -13 17 -14 -6 0 -16 -4 -21 -15 -17 -8 3 -15 1 -15 -5 0 -6 -4
-8 -9 -4 -5 3 -13 0 -17 -6 -4 -8 -3 -9 4 -5 8 5 10 2 6 -9 -5 -13 -9 -13 -22
-3 -9 7 -13 8 -9 2 3 -6 -5 -17 -18 -24 -14 -7 -25 -17 -25 -22 0 -5 12 -1 28
8 l27 16 -25 -21 c-14 -11 -30 -19 -37 -16 -7 2 -10 -2 -6 -11 4 -10 0 -12
-11 -8 -9 3 -16 2 -16 -4 0 -6 6 -13 13 -15 7 -3 4 -6 -6 -6 -12 -1 -16 -5
-11 -13 5 -9 2 -8 -9 1 -15 12 -17 12 -11 -4 6 -14 4 -16 -6 -10 -8 5 -11 4
-7 -2 4 -6 0 -13 -8 -17 -8 -3 -15 -11 -15 -18 0 -9 3 -8 10 2 6 9 10 10 10 3
0 -6 -9 -19 -21 -27 -14 -9 -18 -19 -13 -28 5 -9 2 -8 -11 2 -17 14 -18 14 -5
-10 13 -24 12 -24 -5 -10 -17 14 -18 14 -5 -10 12 -23 12 -24 -4 -11 -14 12
-16 12 -10 -4 5 -13 4 -16 -5 -10 -10 6 -11 3 -2 -13 10 -18 8 -20 -8 -17 -14
2 -18 -1 -14 -11 3 -7 10 -11 16 -7 6 4 7 1 3 -6 -5 -7 -14 -10 -20 -8 -7 3
-13 0 -13 -6 0 -7 -4 -21 -9 -32 -7 -19 -6 -19 12 -5 18 14 18 14 5 -3 -8 -10
-20 -16 -27 -13 -8 3 -11 0 -7 -9 3 -8 10 -12 17 -8 7 4 7 1 -1 -9 -7 -8 -10
-18 -6 -22 4 -4 0 -4 -8 -1 -10 4 -16 0 -16 -9 0 -8 3 -13 7 -11 4 2 7 -2 7
-10 0 -8 -5 -11 -10 -8 -6 4 -8 -3 -5 -15 4 -12 2 -22 -3 -22 -5 0 -9 5 -9 12
0 6 -2 9 -5 6 -10 -10 7 -38 19 -31 7 4 7 1 -1 -9 -7 -8 -10 -18 -6 -21 3 -4
-1 -9 -10 -13 -9 -3 -13 -12 -10 -21 4 -10 2 -14 -4 -10 -5 3 -10 0 -10 -8 0
-8 4 -12 8 -10 4 3 10 -2 13 -11 3 -8 2 -13 -3 -10 -5 3 -12 -1 -15 -10 -3 -8
-2 -12 4 -9 14 9 12 -8 -2 -24 -10 -11 -10 -13 0 -7 7 5 12 1 12 -9 0 -9 -4
-14 -8 -11 -5 3 -9 -1 -9 -9 0 -8 5 -11 10 -8 6 4 8 0 4 -9 -3 -9 0 -21 6 -28
10 -10 8 -12 -8 -6 -20 6 -20 6 -1 -9 11 -8 14 -15 8 -15 -7 0 -12 -5 -12 -11
0 -5 4 -8 9 -5 5 3 12 -1 15 -10 3 -8 2 -13 -3 -10 -5 3 -15 -2 -22 -12 -12
-15 -12 -16 2 -5 19 16 29 7 29 -24 0 -15 4 -22 11 -17 8 4 8 1 1 -13 -9 -15
-5 -25 18 -50 20 -22 26 -33 18 -41 -8 -8 -4 -9 13 -6 19 5 21 4 9 -5 -11 -8
-12 -11 -2 -11 7 0 10 -4 7 -10 -3 -5 0 -7 8 -4 8 3 18 0 23 -7 4 -8 3 -10 -4
-5 -8 5 -10 2 -6 -8 3 -9 10 -13 15 -10 18 11 31 -7 17 -24 -10 -14 -10 -15 2
-4 19 16 30 15 30 -4 0 -9 -5 -12 -12 -8 -7 5 -8 3 -3 -5 5 -9 10 -10 18 -2 8
8 15 5 25 -11 8 -14 11 -16 8 -5 -5 15 -2 16 14 7 11 -6 20 -13 20 -16 0 -3
-4 -3 -8 0 -5 3 -9 -1 -9 -9 0 -8 3 -13 5 -10 3 3 11 0 19 -7 11 -9 12 -7 6 8
-6 17 -5 17 10 5 9 -7 14 -18 10 -24 -3 -5 -1 -7 5 -3 6 3 18 -2 28 -11 17
-17 18 -17 11 2 -7 18 -5 18 10 -2 13 -17 22 -20 33 -13 20 13 30 12 30 -1 0
-5 -4 -8 -9 -4 -5 3 -13 0 -17 -7 -4 -7 -4 -10 0 -6 5 4 19 3 31 -2 19 -7 25
-5 28 8 3 12 5 9 6 -7 1 -20 3 -21 16 -11 10 9 15 9 15 1 0 -6 5 -11 11 -11 5
0 8 4 5 8 -3 5 1 9 9 9 7 0 12 -8 10 -18 -2 -10 1 -21 6 -25 5 -3 9 -2 8 3 -3
19 2 33 12 33 6 0 8 -7 5 -16 -3 -8 -2 -13 2 -10 5 3 21 7 36 10 24 4 26 2 21
-17 -5 -16 -4 -18 4 -8 12 18 51 22 70 7 12 -9 13 -8 8 7 -6 17 -5 17 15 3 17
-12 25 -13 37 -3 10 8 13 8 8 1 -4 -7 0 -14 8 -18 8 -3 17 0 21 6 5 7 2 8 -6
3 -9 -5 -11 -4 -6 3 10 17 26 15 26 -4 0 -8 5 -12 10 -9 6 4 8 11 5 16 -3 5 1
6 9 3 9 -3 13 -11 9 -17 -3 -6 -1 -7 5 -3 7 4 12 15 13 24 0 14 2 13 9 -3 5
-11 9 -14 9 -7 1 7 6 10 11 7 6 -3 10 -1 10 5 0 7 7 5 16 -4 18 -19 28 -21 18
-4 -5 7 -2 9 9 5 8 -3 21 0 27 8 13 16 43 9 34 -9 -3 -6 3 0 14 14 17 20 23
22 35 12 12 -10 18 -9 32 4 15 16 31 20 97 26 15 1 30 8 33 16 3 7 10 10 16 6
8 -4 9 -3 5 4 -8 14 30 36 50 28 12 -5 12 -2 3 15 -10 19 -9 20 11 9 18 -10
21 -9 15 1 -6 9 -3 11 8 6 11 -4 14 -2 11 7 -3 7 3 19 13 27 16 12 17 12 6 -1
-10 -13 -9 -16 6 -16 12 0 17 5 13 15 -3 7 2 19 10 25 8 6 17 16 19 21 2 6 10
8 19 7 8 -2 12 -1 8 4 -4 4 0 12 9 19 9 7 17 27 18 46 1 18 7 35 13 37 7 2 10
8 6 13 -3 5 1 9 9 9 8 0 17 7 21 15 3 8 2 15 -2 15 -4 0 -8 9 -8 19 0 16 3 18
15 8 12 -10 13 -9 4 8 -11 22 -6 48 8 39 14 -8 11 6 -6 22 -13 14 -10 49 4 40
4 -3 7 19 7 49 -1 29 -4 51 -8 49 -5 -3 -8 0 -8 6 0 6 -5 8 -11 4 -8 -5 -8 -1
0 14 14 26 14 35 1 27 -5 -3 -10 -1 -10 4 0 6 5 11 12 11 6 0 3 7 -8 16 -10 8
-14 13 -9 11 9 -5 10 9 6 56 -1 5 -11 6 -23 3 -13 -3 -17 -3 -10 0 6 3 9 11 6
16 -4 6 -2 8 4 4 6 -3 14 -1 18 5 4 8 3 9 -4 5 -7 -4 -12 -1 -12 8 0 9 -4 16
-10 16 -5 0 -10 5 -10 11 0 5 5 7 11 4 6 -4 5 2 -3 14 -7 12 -17 21 -22 21 -4
0 -6 9 -3 20 3 11 1 20 -4 20 -4 0 -5 7 -2 17 4 9 2 14 -3 11 -5 -3 -14 0 -21
7 -10 11 -10 15 0 18 8 3 6 10 -8 21 l-20 16 20 -6 c19 -7 20 -6 1 8 -12 9
-16 20 -11 28 5 8 4 11 -1 7 -6 -3 -16 -2 -24 4 -12 7 -11 9 5 9 18 0 17 2 -5
13 -14 7 -24 21 -24 30 1 9 -2 17 -8 17 -5 0 -6 5 -3 10 3 6 1 10 -5 10 -6 0
-8 5 -5 10 4 6 1 9 -6 8 -6 -2 -14 3 -17 11 -2 8 0 11 5 8 5 -3 10 0 10 8 0
11 -3 12 -14 3 -11 -9 -15 -7 -20 10 -3 12 -10 22 -15 22 -6 0 -8 6 -5 14 4
10 -1 12 -16 9 -18 -4 -19 -3 -7 6 11 8 12 11 2 11 -8 0 -10 5 -6 13 6 9 4 9
-8 -1 -14 -11 -16 -10 -14 11 2 19 -1 23 -16 19 -10 -2 -18 1 -18 7 0 7 4 10
8 7 5 -3 9 1 9 9 0 12 -4 12 -20 -2 -19 -17 -20 -17 -14 5 5 20 3 22 -11 10
-12 -10 -14 -10 -8 0 7 11 -11 17 -37 13 -5 -1 -6 3 -2 8 3 6 12 8 20 4 8 -3
15 0 15 5 0 6 -9 9 -20 7 -12 -2 -26 5 -35 18 -17 24 -20 15 -5 -14 17 -31 4
-22 -19 14 -11 17 -21 27 -21 21 0 -6 -7 -11 -14 -11 -12 0 -13 5 -4 21 9 18
9 19 -3 10 -8 -6 -25 -11 -37 -12 -18 -1 -22 3 -17 16 5 13 4 14 -6 5 -10 -10
-15 -9 -26 5 -11 13 -13 13 -10 2 3 -10 -3 -15 -19 -15 -13 0 -24 3 -24 7 0 4
-7 5 -15 2 -8 -3 -20 -2 -27 2 -19 12 -38 14 -38 4z m-320 -120 c0 -5 -5 -10
-11 -10 -5 0 -7 5 -4 10 3 6 8 10 11 10 2 0 4 -4 4 -10z m1017 -576 c-3 -3
-12 -4 -19 -1 -8 3 -5 6 6 6 11 1 17 -2 13 -5z m28 -144 c3 -5 1 -10 -4 -10
-6 0 -11 5 -11 10 0 6 2 10 4 10 3 0 8 -4 11 -10z m0 -30 c-3 -5 -12 -10 -18
-10 -7 0 -6 4 3 10 19 12 23 12 15 0z m5 -24 c0 -3 -4 -8 -10 -11 -5 -3 -10
-1 -10 4 0 6 5 11 10 11 6 0 10 -2 10 -4z m-1440 -226 c0 -5 -2 -10 -4 -10 -3
0 -8 5 -11 10 -3 6 -1 10 4 10 6 0 11 -4 11 -10z m1370 -56 c0 -8 -19 -13 -24
-6 -3 5 1 9 9 9 8 0 15 -2 15 -3z m-251 -195 c-24 -15 -30 -10 -11 9 9 10 19
14 21 9 2 -5 -3 -13 -10 -18z"/>
<path d="M1665 511 c-3 -5 -2 -12 3 -15 5 -3 9 1 9 9 0 17 -3 19 -12 6z"/>
<path d="M1305 231 c-3 -5 -2 -12 3 -15 5 -3 9 1 9 9 0 17 -3 19 -12 6z"/>
<path d="M1175 201 c-3 -5 -2 -12 3 -15 5 -3 9 1 9 9 0 17 -3 19 -12 6z"/>
<path d="M1096 182 c-3 -5 1 -9 9 -9 8 0 12 4 9 9 -3 4 -7 8 -9 8 -2 0 -6 -4
-9 -8z"/>
</g>
</svg>
